# xmcd CD database file
#
# Track frame offsets:
#	187
#	18000
#	35912
#	53737
#
# Disc length: 951 seconds
#
# Revision: 0
# Processed by: cddbd v1.5.2PL0 Copyright (c) Steve Scherf et al.
# Submitted via: CDex 1.70beta3
#
DISCID=2903b504
DTITLE=Vivian Chow - 眠れぬ夜
DYEAR=1995
DGENRE=Country
TTITLE0=眠れぬ夜
TTITLE1=不相信愛情
TTITLE2=眠れぬ夜(karaoke)
TTITLE3=不相信愛情（からおけ）
EXTD=YEAR: 1995
EXTT0=
EXTT1=
EXTT2=
EXTT3=
PLAYORDER=
